# xmcd
#
# Track frame offsets:
#	150
#	23825
#	39055
#	51898
#	60815
#	76855
#	89995
#	97323
#	109563
#	119265
#	137485
#	149583
#	158550
#	173860
#
# Disc length: 2432 seconds
#
# Revision: 1
# Processed by: cddbd v1.5.1PL0 Copyright (c) Steve Scherf et al.
# Submitted via: CDex 1.50Beta5
#
DISCID=b1097e0e
DTITLE=THE ROOSTERS - unreleased
DYEAR=1900
DGENRE=Rock
TTITLE0=SATURDAY NIGHT
TTITLE1=BYE BYE MY GIRL
TTITLE2=I'M TALKIN ABOUT YOU
TTITLE3=BYE BYE JOHNNY
TTITLE4=TELL ME YOUR NAME
TTITLE5=SITTIN' ON THE FENCE
TTITLE6=HAPPY HIPPY SHAKE
TTITLE7=BABY I LOVE YOU
TTITLE8=LITTLE BY LITTLE
TTITLE9=I WANT SOMETHING ELSE TO ME
TTITLE10=UNDER MY THUMB
TTITLE11=ALL RIGHT ALL RIGHT
TTITLE12=ONE MORE KISS (LIVE)
TTITLE13=恋をしようよ(LIVE)
EXTD=
EXTT0=
EXTT1=
EXTT2=
EXTT3=
EXTT4=
EXTT5=
EXTT6=
EXTT7=
EXTT8=
EXTT9=
EXTT10=
EXTT11=
EXTT12=
EXTT13=
PLAYORDER=
